<svg width="60" height="60" viewBox="0 0 60 60" fill="none" xmlns="http://www.w3.org/2000/svg">
<g clip-path="url(#clip0_119_1124)">
<g filter="url(#filter0_i_119_1124)">
<rect width="60" height="60" rx="8" fill="#9AFF6A"/>
</g>
<g filter="url(#filter1_i_119_1124)">
<rect x="3" y="3" width="54" height="54" rx="6" fill="#65E927"/>
</g>
<g clip-path="url(#clip1_119_1124)">
<path d="M21.2366 25.8674C20.6989 26.2588 20.5707 27.0257 20.9502 27.5803C21.3298 28.1348 22.0733 28.267 22.611 27.8756L21.2366 25.8674ZM26.9071 17.1508L28.0801 16.9343C27.9778 16.3448 27.4786 15.9173 26.898 15.9218C26.3175 15.9264 25.8246 16.3618 25.731 16.9528L26.9071 17.1508ZM32.152 30.2273C31.6754 30.6954 31.657 31.4734 32.1109 31.9649C32.5648 32.4565 33.319 32.4755 33.7956 32.0073L32.152 30.2273ZM22.611 27.8756C24.7464 26.321 27.1718 23.1063 28.0832 17.3489L25.731 16.9528C24.9091 22.1451 22.7845 24.7405 21.2366 25.8674L22.611 27.8756ZM26.9071 17.1508C25.7341 17.3674 25.7341 17.3673 25.7341 17.3672C25.7341 17.3671 25.7341 17.3673 25.7341 17.3672C25.7341 17.3675 25.7343 17.3683 25.7344 17.3691C25.7347 17.3707 25.7351 17.3735 25.7358 17.3773C25.7371 17.3849 25.7391 17.3969 25.7418 17.413C25.7473 17.4453 25.7554 17.4943 25.766 17.5593C25.7871 17.6892 25.8178 17.8829 25.8554 18.1335C25.9306 18.635 26.0334 19.3641 26.1427 20.2674C26.3614 22.0755 26.6049 24.5737 26.7048 27.3363C26.9077 32.9437 26.5032 39.339 24.3469 43.3732L26.434 44.5598C28.9361 39.8789 29.2899 32.8661 29.0865 27.2447C28.9833 24.3928 28.7325 21.8212 28.5077 19.9631C28.3952 19.0332 28.2891 18.2801 28.2107 17.7577C28.1715 17.4964 28.1392 17.2927 28.1166 17.1532C28.1052 17.0835 28.0963 17.0298 28.0901 16.993C28.0871 16.9747 28.0847 16.9605 28.083 16.9507C28.0821 16.9458 28.0815 16.9419 28.081 16.9392C28.0808 16.9378 28.0806 16.9367 28.0804 16.9359C28.0804 16.9355 28.0803 16.9351 28.0803 16.9349C28.0802 16.9345 28.0801 16.9343 26.9071 17.1508ZM24.3469 43.3732C23.2359 45.4516 22.1885 46.5515 21.3656 47.0449C20.5901 47.5099 20.0649 47.4226 19.7098 47.2078C19.2905 46.9544 18.8511 46.3629 18.6289 45.3835C18.4112 44.4237 18.433 43.1957 18.8354 41.8775L16.5621 41.1392C16.0437 42.8378 15.9843 44.5149 16.3082 45.9432C16.6277 47.3522 17.3529 48.6322 18.5045 49.3285C19.7202 50.0635 21.1721 50.004 22.5632 49.17C23.9069 48.3647 25.2158 46.8389 26.434 44.5598L24.3469 43.3732ZM18.8354 41.8775C19.6191 39.3102 21.5418 37.5951 24.0713 36.3627C26.617 35.1225 29.6229 34.4474 32.3408 33.8867L31.8734 31.4764C29.1746 32.033 25.8972 32.7546 23.0533 34.1401C20.1933 35.5334 17.6201 37.6731 16.5621 41.1392L18.8354 41.8775ZM32.3408 33.8867C34.7145 33.3971 36.3418 34.0163 37.4275 34.9714C38.556 35.9642 39.1969 37.4089 39.3783 38.6717L41.7358 38.3115C41.4841 36.5575 40.6081 34.5385 38.9742 33.1012C37.2974 31.6261 34.9164 30.8487 31.8734 31.4764L32.3408 33.8867ZM39.3783 38.6717C39.5622 39.9528 39.3798 41.5149 38.9402 42.8623C38.7224 43.5296 38.4538 44.1064 38.1669 44.5459C37.8716 44.9987 37.606 45.2315 37.4242 45.3254L38.49 47.5238C39.1748 47.1707 39.7219 46.5656 40.1442 45.9184C40.5749 45.2583 40.9292 44.4731 41.1992 43.646C41.7345 42.0047 41.9852 40.0471 41.7358 38.3115L39.3783 38.6717ZM37.8907 14.4791C38.0735 14.3971 38.1231 14.4181 38.0796 14.4126C38.0105 14.4037 37.9496 14.3619 37.9286 14.3382C37.9253 14.3346 37.9741 14.3905 38.0291 14.5739C38.0826 14.752 38.127 15.0007 38.1498 15.3258C38.2434 16.6647 37.9338 18.7089 37.3565 20.7112L39.6411 21.4117C40.2556 19.28 40.6501 16.9107 40.5268 15.1491C40.4686 14.3128 40.2783 13.3385 39.6784 12.6694C39.3458 12.2984 38.9023 12.0409 38.373 11.9732C37.8688 11.9086 37.3803 12.0275 36.9403 12.2248L37.8907 14.4791ZM37.3565 20.7112C36.2083 24.6947 34.2405 28.1758 32.152 30.2273L33.7956 32.0073C36.2571 29.5895 38.4059 25.6964 39.6411 21.4117L37.3565 20.7112ZM37.4242 45.3254C37.1926 45.4447 36.8065 45.5439 36.3842 45.4456C35.9955 45.3551 35.4401 45.0668 34.8771 44.1663C33.689 42.2659 32.6228 37.8762 33.2956 28.4139L30.9187 28.2341C30.2409 37.766 31.233 42.8737 32.8742 45.4985C33.7258 46.8606 34.7779 47.5917 35.8596 47.8433C36.9077 48.0874 37.8549 47.8514 38.49 47.5238L37.4242 45.3254ZM33.2956 28.4139C33.5352 25.0444 34.2197 21.6916 35.1333 19.0712C35.5905 17.7596 36.0931 16.6667 36.6034 15.8568C37.1321 15.0178 37.5859 14.6157 37.8907 14.4791L36.9403 12.2248C35.9992 12.6468 35.2282 13.5284 34.605 14.5174C33.9635 15.5355 33.3872 16.8149 32.8905 18.2395C31.8962 21.0914 31.1724 24.666 30.9187 28.2341L33.2956 28.4139Z" fill="black"/>
<path d="M27.3813 11.7599C27.5496 12.7318 27.0175 13.6429 26.1929 13.7947C25.3683 13.9465 24.5635 13.2817 24.3952 12.3097C24.227 11.3378 24.759 10.4268 25.5836 10.2749C26.4082 10.1231 27.2131 10.7879 27.3813 11.7599Z" fill="black"/>
</g>
</g>
<defs>
<filter id="filter0_i_119_1124" x="0" y="0" width="60" height="60" filterUnits="userSpaceOnUse" color-interpolation-filters="sRGB">
<feFlood flood-opacity="0" result="BackgroundImageFix"/>
<feBlend mode="normal" in="SourceGraphic" in2="BackgroundImageFix" result="shape"/>
<feColorMatrix in="SourceAlpha" type="matrix" values="0 0 0 0 0 0 0 0 0 0 0 0 0 0 0 0 0 0 127 0" result="hardAlpha"/>
<feOffset/>
<feGaussianBlur stdDeviation="1.4"/>
<feComposite in2="hardAlpha" operator="arithmetic" k2="-1" k3="1"/>
<feColorMatrix type="matrix" values="0 0 0 0 0 0 0 0 0 0 0 0 0 0 0 0 0 0 0.25 0"/>
<feBlend mode="normal" in2="shape" result="effect1_innerShadow_119_1124"/>
</filter>
<filter id="filter1_i_119_1124" x="3" y="3" width="54" height="54" filterUnits="userSpaceOnUse" color-interpolation-filters="sRGB">
<feFlood flood-opacity="0" result="BackgroundImageFix"/>
<feBlend mode="normal" in="SourceGraphic" in2="BackgroundImageFix" result="shape"/>
<feColorMatrix in="SourceAlpha" type="matrix" values="0 0 0 0 0 0 0 0 0 0 0 0 0 0 0 0 0 0 127 0" result="hardAlpha"/>
<feOffset/>
<feGaussianBlur stdDeviation="1.85"/>
<feComposite in2="hardAlpha" operator="arithmetic" k2="-1" k3="1"/>
<feColorMatrix type="matrix" values="0 0 0 0 0.106526 0 0 0 0 0.332894 0 0 0 0 0 0 0 0 0.25 0"/>
<feBlend mode="normal" in2="shape" result="effect1_innerShadow_119_1124"/>
</filter>
<clipPath id="clip0_119_1124">
<rect width="60" height="60" fill="white"/>
</clipPath>
<clipPath id="clip1_119_1124">
<rect width="26" height="40" fill="white" transform="translate(16 10)"/>
</clipPath>
</defs>
</svg>
